<?xml version="1.0" standalone="no"?>
<!DOCTYPE svg PUBLIC "-//W3C//DTD SVG 20010904//EN"
 "http://www.w3.org/TR/2001/REC-SVG-20010904/DTD/svg10.dtd">
<svg version="1.0" xmlns="http://www.w3.org/2000/svg"
 width="4896.000000pt" height="4896.000000pt" viewBox="0 0 4896.000000 4896.000000"
 preserveAspectRatio="xMidYMid meet">
<metadata>
Created by potrace 1.16, written by Peter Selinger 2001-2019
</metadata>
<g transform="translate(0.000000,4896.000000) scale(0.100000,-0.100000)"
fill="#000000" stroke="none">
<path d="M34025 27530 c-148 -4 -441 -8 -650 -9 -646 -2 -1000 -42 -1111 -127
-33 -24 -64 -95 -64 -145 0 -59 0 -59 -355 -58 -296 0 -326 -1 -352 -18 -126
-81 -391 -365 -522 -558 -252 -373 -493 -794 -644 -1125 -14 -30 -50 -109 -82
-175 -31 -66 -65 -138 -75 -160 -177 -380 -158 -348 -214 -359 -67 -14 -96 2
-96 52 0 37 46 186 75 242 21 40 73 82 147 118 97 46 136 114 90 155 -24 22
-151 22 -443 2 -419 -29 -728 -88 -866 -166 -135 -76 -228 -211 -262 -377 -23
-111 -11 -152 60 -217 66 -59 148 -91 254 -99 217 -15 584 -37 743 -45 95 -5
176 -12 179 -15 4 -3 -18 -30 -48 -58 -231 -223 -270 -264 -288 -303 -22 -47
-43 -130 -61 -242 -6 -39 -19 -80 -28 -90 -9 -11 -89 -79 -177 -153 -88 -74
-162 -137 -165 -140 -3 -3 -43 -39 -90 -79 -125 -110 -237 -222 -251 -251 -39
-87 -62 -559 -63 -1310 0 -305 4 -1131 9 -1835 l10 -1280 24 -45 c34 -65 112
-135 177 -160 53 -19 74 -20 667 -20 635 0 635 0 713 42 44 24 112 101 136
156 17 39 22 75 27 222 l6 175 40 -1 c22 -1 166 -7 320 -13 154 -7 408 -15
565 -18 270 -5 289 -4 365 16 108 29 456 137 536 165 43 16 53 11 66 -28 5
-17 22 -39 37 -50 l27 -21 2179 0 2179 0 28 21 c15 11 32 35 37 52 6 17 15 33
21 36 6 2 63 -13 126 -34 63 -21 155 -50 204 -65 50 -15 110 -34 133 -41 148
-48 189 -54 364 -54 175 0 581 14 873 30 143 8 161 7 173 -8 8 -11 12 -64 12
-178 0 -143 2 -167 21 -209 24 -55 89 -129 133 -153 78 -42 78 -42 719 -42
l617 0 63 28 c68 31 134 96 164 159 17 35 18 107 24 1078 4 572 10 1351 14
1730 10 942 -15 1560 -67 1660 -9 17 -59 71 -110 120 -131 125 -148 140 -363
320 -104 87 -195 164 -201 170 -15 14 -32 70 -39 130 -18 145 -65 258 -128
311 -62 52 -269 255 -264 260 2 3 85 9 183 14 603 32 798 48 859 67 62 20 141
74 179 122 27 34 28 40 23 111 -10 142 -59 251 -157 350 -75 75 -132 107 -250
142 -208 62 -385 89 -729 113 -303 21 -423 20 -444 -3 -40 -44 -1 -111 88
-152 72 -33 129 -79 153 -124 31 -59 71 -191 72 -238 0 -43 -3 -48 -25 -54
-14 -3 -46 -3 -71 1 l-46 6 -65 137 c-35 75 -74 157 -85 182 -11 25 -41 88
-65 140 -25 52 -59 124 -75 160 -103 222 -232 477 -276 548 -29 46 -52 85 -52
88 0 2 -41 70 -92 151 -50 82 -98 160 -107 175 -57 96 -159 251 -207 314 -116
154 -362 409 -451 468 l-41 27 -331 2 c-363 2 -350 0 -351 62 -1 50 -26 108
-60 136 -58 49 -220 87 -460 109 -206 20 -1986 42 -2395 30z m1075 -700 c318
-10 645 -26 1245 -61 99 -6 250 -14 335 -19 211 -12 466 -28 635 -40 77 -5
217 -15 310 -21 94 -5 180 -12 192 -15 25 -5 40 -30 176 -294 52 -102 131
-255 175 -340 120 -235 337 -669 362 -725 13 -27 36 -79 52 -115 47 -101 132
-317 158 -398 21 -69 22 -74 6 -90 -15 -16 -87 -17 -924 -16 -926 0 -2172 16
-2861 35 -278 8 -491 8 -775 0 -695 -19 -1918 -34 -2858 -35 -1032 -1 -962 -6
-938 70 21 69 93 259 102 268 4 6 8 16 8 22 0 7 14 43 31 81 17 37 47 104 67
148 35 78 345 696 484 965 39 74 102 196 140 270 39 74 77 141 86 148 9 6 36
12 61 12 25 0 100 4 166 10 192 15 604 42 930 60 88 5 239 13 335 19 211 12
471 27 760 42 511 27 1070 34 1540 19z m-5360 -3823 c82 -32 517 -170 640
-203 30 -9 80 -22 110 -31 52 -14 216 -56 395 -102 44 -11 118 -29 165 -41 47
-12 101 -26 120 -30 19 -4 73 -18 120 -30 47 -12 121 -30 165 -41 44 -12 125
-32 180 -46 153 -39 205 -41 262 -7 93 52 139 71 203 82 190 33 1325 48 1822
24 219 -10 265 -15 315 -33 68 -26 150 -99 181 -161 42 -86 45 -114 46 -383 1
-252 0 -262 -23 -319 -31 -78 -89 -139 -167 -177 l-63 -31 -593 5 c-581 6
-697 11 -918 46 -224 35 -398 99 -540 197 -40 28 -152 140 -205 205 -11 14
-36 45 -57 70 l-36 45 -105 13 c-58 8 -163 14 -234 15 l-128 1 -79 -43 c-43
-24 -83 -47 -90 -53 -38 -31 -197 -137 -230 -153 -35 -17 -58 -18 -220 -13
-100 3 -210 10 -246 16 -36 6 -114 18 -175 26 -60 9 -132 20 -160 25 -27 5
-93 16 -145 25 -52 9 -117 20 -145 25 -27 5 -93 16 -145 25 -235 38 -403 91
-510 160 -75 48 -123 95 -144 139 -8 17 -23 51 -35 76 -60 130 -52 387 17 555
28 69 72 101 177 129 84 22 111 24 270 21 122 -2 148 -5 205 -28z m10151 4
c140 -44 170 -86 204 -286 17 -96 19 -232 5 -305 -15 -78 -73 -190 -125 -244
-25 -25 -50 -46 -55 -46 -5 0 -15 -6 -22 -12 -16 -16 -91 -53 -149 -74 -101
-36 -267 -75 -449 -104 -134 -21 -309 -51 -355 -60 -27 -5 -99 -17 -160 -25
-60 -9 -139 -20 -175 -26 -36 -6 -147 -13 -246 -16 -175 -5 -183 -5 -228 17
-25 13 -54 31 -64 40 -28 25 -212 145 -272 176 -53 28 -60 29 -187 28 -116 -2
-275 -16 -325 -30 -10 -3 -39 -33 -65 -67 -62 -81 -186 -210 -243 -252 -126
-91 -301 -156 -531 -195 -199 -34 -363 -42 -929 -47 -572 -5 -575 -5 -630 17
-74 29 -116 62 -154 124 -56 91 -59 105 -57 389 1 277 5 306 56 392 59 101
153 154 294 166 375 32 1030 35 1676 9 367 -14 390 -19 548 -109 59 -33 124
-26 367 39 65 18 125 33 160 40 47 11 593 150 745 190 66 18 136 36 155 40 41
9 89 24 415 125 50 15 160 52 245 81 l155 53 165 -4 c131 -3 179 -8 231 -24z
m-10310 -1741 c44 -12 84 -55 217 -231 56 -75 108 -142 116 -149 16 -13 92
-35 176 -51 30 -6 73 -14 95 -19 151 -29 359 -66 455 -80 30 -4 105 -15 165
-25 61 -9 139 -21 175 -26 107 -15 280 -39 355 -49 39 -5 120 -16 180 -25 61
-9 137 -20 170 -24 148 -21 215 -44 215 -76 0 -11 -76 -164 -129 -260 -12 -22
-68 -116 -124 -209 -101 -168 -103 -170 -163 -202 -81 -43 -232 -103 -384
-154 -81 -27 -213 -59 -336 -80 -109 -19 -339 -6 -704 39 -174 22 -276 43
-375 79 -173 62 -208 151 -294 757 -15 107 -34 431 -35 615 l-1 165 50 6 c83
10 138 9 176 -1z m10308 -6 c6 -5 2 -360 -4 -399 -3 -16 -10 -104 -15 -195 -6
-91 -15 -194 -21 -230 -5 -36 -15 -96 -20 -135 -25 -169 -55 -305 -87 -400
-60 -173 -177 -216 -772 -281 -271 -30 -512 -23 -647 16 -18 6 -48 14 -65 19
-145 40 -186 53 -243 76 -16 7 -46 18 -65 25 -106 39 -225 98 -249 124 -17 19
-121 183 -121 191 0 2 -26 47 -58 102 -94 157 -172 311 -172 338 0 13 8 28 18
34 29 15 208 47 437 76 66 8 147 19 180 25 33 5 83 12 110 15 28 3 77 10 110
15 33 5 110 17 170 25 61 9 135 20 165 25 30 4 84 13 120 19 36 6 104 17 153
26 277 48 316 56 412 80 28 7 62 16 77 19 21 5 56 45 145 163 137 182 181 230
220 236 30 6 215 -2 222 -9z m-4254 -664 c312 -11 855 -43 997 -61 119 -14
179 -41 260 -117 101 -95 298 -375 365 -518 32 -67 37 -90 38 -149 1 -163 -59
-184 -690 -245 -266 -25 -583 -38 -1517 -61 -409 -10 -607 -10 -1015 0 -1153
28 -1293 35 -1783 87 -152 16 -261 35 -320 55 -125 43 -152 148 -79 314 47
105 286 441 372 522 104 97 150 109 547 138 636 48 1946 64 2825 35z"/>
<path d="M33065 22545 c-11 -3 -189 -9 -395 -15 -451 -13 -549 -28 -605 -90
-34 -38 -37 -147 -5 -240 5 -14 28 -85 51 -159 41 -129 45 -137 99 -191 41
-41 85 -70 161 -108 97 -48 142 -65 344 -128 132 -42 268 -53 740 -64 796 -17
743 -18 798 9 54 26 87 69 118 152 36 97 22 423 -25 594 -41 148 -77 177 -261
205 -38 6 -248 15 -465 20 -217 5 -426 11 -465 14 -38 2 -79 3 -90 1z"/>
<path d="M35958 22545 c-3 -3 -190 -10 -415 -15 -635 -14 -677 -25 -735 -188
-52 -148 -78 -513 -43 -613 36 -104 71 -150 131 -175 43 -18 165 -19 804 -4
523 13 605 22 805 89 250 83 327 120 409 193 71 63 107 144 167 371 43 163 28
230 -62 274 -67 32 -162 42 -529 53 -184 5 -378 12 -430 16 -52 3 -98 3 -102
-1z"/>
<path d="M29453 21164 c-12 -33 14 -538 37 -694 34 -236 42 -289 50 -325 48
-221 74 -279 146 -315 90 -45 265 -75 689 -121 145 -15 347 -15 415 1 208 47
415 112 550 172 19 9 56 25 82 37 36 16 56 34 83 76 19 30 35 58 35 60 0 3 12
24 27 48 34 53 153 258 153 263 0 3 11 22 25 44 42 67 39 71 -70 85 -27 4 -95
13 -150 21 -55 8 -131 19 -170 23 -38 5 -104 14 -145 20 -87 13 -164 24 -350
51 -168 24 -410 63 -585 95 -228 42 -377 78 -411 100 -11 7 -76 87 -144 177
-68 89 -132 171 -143 181 -27 23 -115 24 -124 1z"/>
<path d="M39654 21146 c-47 -55 -85 -105 -159 -206 -39 -52 -79 -105 -90 -116
-32 -34 -142 -66 -355 -104 -25 -5 -85 -16 -135 -25 -49 -9 -119 -20 -155 -26
-36 -5 -72 -12 -80 -14 -9 -3 -47 -9 -85 -15 -39 -5 -117 -16 -175 -25 -58 -9
-134 -21 -170 -25 -36 -5 -117 -16 -180 -25 -63 -9 -146 -20 -185 -26 -38 -5
-117 -16 -175 -24 -58 -9 -131 -18 -163 -22 -39 -4 -61 -11 -65 -21 -6 -16 18
-67 80 -170 21 -34 38 -64 38 -67 0 -2 22 -41 50 -87 138 -231 114 -210 324
-292 187 -73 270 -98 486 -147 67 -15 274 -15 417 1 176 19 354 41 411 51 250
44 310 69 350 144 25 49 64 201 82 325 6 36 17 110 25 165 19 126 32 282 45
554 8 171 8 216 -2 223 -7 4 -34 8 -59 8 -41 0 -50 -4 -75 -34z"/>
<path d="M33805 20509 c-559 -9 -1065 -36 -1296 -68 -137 -18 -192 -68 -385
-346 -138 -199 -174 -269 -174 -347 0 -61 27 -72 240 -103 58 -9 159 -20 225
-25 66 -5 131 -12 145 -14 87 -17 865 -48 1630 -66 595 -13 1828 19 2335 62
66 5 165 13 220 18 220 19 390 48 430 74 58 38 18 161 -120 362 -215 313 -273
368 -414 385 -499 62 -1615 89 -2836 68z"/>
<path d="M12378 27439 c-10 -5 -18 -17 -18 -25 0 -8 -4 -22 -10 -32 -5 -9 -16
-35 -25 -57 -9 -22 -21 -48 -26 -57 -5 -10 -9 -22 -9 -28 0 -5 -12 -35 -26
-67 -14 -32 -30 -67 -34 -78 -5 -11 -43 -105 -85 -210 -97 -240 -90 -223 -110
-270 -9 -22 -20 -49 -24 -60 -5 -11 -13 -31 -19 -45 -6 -14 -45 -110 -87 -215
-87 -216 -87 -216 -110 -270 -38 -92 -35 -84 -140 -345 -48 -118 -96 -234
-106 -257 -10 -24 -19 -46 -19 -49 0 -3 -7 -22 -16 -42 -9 -21 -20 -46 -24
-57 -5 -11 -16 -38 -25 -60 -20 -47 -13 -30 -110 -270 -42 -104 -80 -199 -85
-210 -4 -11 -20 -46 -34 -78 -14 -32 -26 -64 -26 -72 0 -7 -4 -17 -10 -20 -5
-3 -10 -13 -10 -20 0 -8 -11 -38 -24 -67 -13 -29 -63 -150 -111 -268 -106
-263 -100 -247 -119 -292 -9 -20 -16 -39 -16 -42 0 -3 -9 -25 -19 -49 -11 -23
-54 -127 -96 -232 -42 -104 -80 -199 -85 -210 -4 -11 -15 -38 -25 -60 -9 -22
-21 -51 -27 -65 -6 -14 -14 -34 -19 -45 -36 -94 -185 -459 -200 -492 -10 -24
-19 -46 -19 -49 0 -6 -6 -21 -44 -106 -9 -20 -16 -39 -16 -42 0 -3 -9 -25 -19
-49 -10 -23 -42 -100 -71 -172 -29 -71 -63 -154 -76 -183 -13 -29 -24 -57 -24
-62 0 -6 -4 -18 -9 -28 -15 -27 -41 -89 -41 -96 0 -3 -9 -28 -21 -54 -12 -26
-25 -56 -29 -67 -28 -67 -44 -106 -100 -245 -34 -85 -73 -179 -86 -208 -13
-29 -24 -57 -24 -62 0 -6 -4 -18 -9 -28 -5 -9 -17 -35 -26 -57 -9 -22 -21 -51
-27 -65 -6 -14 -14 -34 -18 -45 -39 -98 -116 -288 -131 -322 -10 -24 -19 -46
-19 -49 0 -3 -6 -20 -14 -37 -17 -39 -45 -105 -55 -132 -5 -11 -13 -31 -19
-45 -6 -14 -34 -83 -63 -155 -29 -71 -56 -131 -61 -133 -4 -2 -8 -12 -8 -23 0
-19 20 -19 923 -19 l923 0 13 38 c7 20 19 53 28 72 27 64 31 75 53 135 13 33
29 75 36 93 8 17 20 47 27 65 8 17 20 48 27 67 13 37 24 65 39 103 6 12 29 69
51 127 23 58 45 114 50 125 4 11 20 52 35 90 15 39 31 79 36 90 5 11 27 67 49
125 22 58 44 114 49 125 20 48 50 125 71 180 4 11 12 31 18 45 6 14 30 72 52
130 43 112 55 141 74 180 l12 25 1644 0 1644 0 12 -25 c19 -39 31 -68 74 -180
22 -58 45 -114 49 -125 5 -11 15 -36 21 -55 7 -19 19 -48 25 -65 7 -16 23 -57
35 -90 13 -33 29 -76 37 -95 15 -36 19 -44 48 -120 10 -25 21 -54 25 -65 5
-11 20 -51 35 -90 15 -38 31 -79 35 -90 5 -11 20 -51 35 -90 15 -38 31 -79 36
-90 5 -11 38 -96 74 -190 36 -93 69 -179 74 -190 5 -11 19 -47 31 -80 25 -66
47 -118 63 -152 l10 -23 924 0 c508 0 923 2 923 4 0 3 -12 33 -26 68 -14 35
-30 72 -34 83 -4 11 -15 36 -24 57 -9 20 -16 39 -16 42 0 3 -9 25 -19 49 -10
23 -42 101 -71 172 -28 72 -56 141 -62 155 -18 42 -25 60 -93 230 -71 178 -83
206 -96 232 -5 10 -9 22 -9 28 0 5 -11 33 -24 62 -13 29 -47 112 -75 183 -60
150 -65 161 -79 195 -6 14 -34 84 -63 155 -28 72 -62 154 -75 183 -13 29 -24
57 -24 62 0 6 -4 18 -9 28 -6 9 -44 103 -86 207 -42 105 -80 200 -86 213 -14
33 -23 55 -79 197 -29 72 -61 149 -71 172 -10 24 -19 46 -19 49 0 3 -7 22 -16
42 -19 44 -19 43 -84 207 -29 72 -58 144 -66 162 -8 17 -14 34 -14 37 0 3 -9
25 -19 49 -10 23 -42 101 -71 172 -60 150 -62 156 -85 210 -40 96 -41 100
-105 260 -28 72 -55 139 -60 150 -5 11 -43 106 -85 210 -81 202 -84 210 -109
267 -9 20 -16 39 -16 42 0 3 -8 25 -19 49 -10 23 -31 74 -46 112 -15 39 -36
89 -46 112 -11 24 -19 46 -19 49 0 3 -7 22 -16 42 -25 58 -30 69 -85 207 -28
72 -58 146 -66 165 -42 101 -43 104 -128 315 -42 105 -81 201 -87 215 -6 14
-14 34 -18 45 -46 117 -117 291 -136 333 -13 29 -24 57 -24 62 0 6 -4 18 -9
28 -5 9 -33 76 -61 147 -58 145 -61 154 -85 210 -9 22 -20 49 -24 60 -5 11
-13 31 -19 45 -9 21 -98 245 -122 305 -4 11 -18 43 -31 70 l-24 50 -1255 2
c-840 2 -1261 -1 -1272 -8z m1300 -1371 c6 -7 24 -49 41 -93 18 -44 35 -89 40
-100 5 -11 21 -51 36 -90 15 -38 30 -79 35 -90 4 -11 15 -40 25 -65 10 -25 22
-56 28 -70 12 -30 15 -37 67 -170 22 -58 45 -114 49 -125 5 -11 21 -51 36 -90
15 -38 30 -79 35 -90 4 -11 20 -51 35 -90 15 -38 31 -79 35 -90 4 -11 20 -51
35 -90 15 -38 31 -79 36 -90 5 -11 27 -67 49 -125 22 -58 44 -114 49 -125 5
-11 21 -51 36 -90 15 -38 31 -79 35 -90 4 -11 20 -51 35 -90 15 -38 33 -83 40
-100 7 -16 22 -57 35 -90 12 -33 26 -69 30 -80 22 -51 39 -95 65 -160 15 -38
31 -79 35 -90 11 -26 60 -154 70 -180 4 -11 15 -37 24 -59 9 -21 15 -40 13
-43 -8 -7 -2192 -3 -2192 5 0 8 88 225 121 300 13 29 24 57 24 62 0 6 4 18 9
28 8 15 28 62 50 117 5 11 13 31 19 45 6 14 45 111 87 215 43 105 86 209 96
232 10 24 19 46 19 49 0 3 7 22 16 42 9 21 19 46 24 57 4 11 12 31 18 45 31
74 41 97 137 335 43 105 86 209 96 232 10 24 19 46 19 49 0 3 7 21 15 40 8 19
22 49 30 68 8 19 15 37 15 40 0 3 9 25 19 49 10 23 58 139 106 257 48 118 96
234 106 257 10 24 19 46 19 49 0 9 32 77 43 92 5 6 17 12 27 12 10 0 22 -6 28
-12z"/>
<path d="M18386 27434 c-3 -8 -6 -1642 -6 -3630 l0 -3614 875 0 875 0 -2 3628
-3 3627 -866 3 c-784 2 -867 1 -873 -14z"/>
<path d="M23180 27439 c-96 -4 -204 -12 -240 -18 -36 -6 -86 -11 -112 -11 -25
0 -68 -4 -95 -9 -26 -6 -93 -17 -148 -26 -147 -24 -220 -39 -325 -70 -30 -8
-73 -20 -95 -26 -43 -12 -168 -55 -200 -69 -159 -69 -366 -184 -415 -231 -8
-8 -31 -26 -50 -40 -141 -105 -315 -340 -409 -552 -107 -239 -171 -617 -171
-1007 0 -328 32 -651 91 -900 11 -47 23 -96 25 -110 3 -14 9 -34 13 -45 5 -11
14 -38 21 -60 31 -98 110 -260 177 -359 71 -105 235 -267 343 -337 141 -92
299 -161 485 -214 436 -122 888 -155 2082 -155 544 0 693 -3 780 -15 289 -40
428 -93 542 -205 95 -94 135 -186 160 -375 14 -103 14 -295 0 -387 -32 -207
-119 -375 -241 -464 -59 -44 -174 -104 -197 -104 -10 0 -21 -3 -25 -7 -4 -4
-28 -13 -54 -20 -175 -49 -413 -62 -1150 -62 -597 -1 -753 5 -862 31 -290 68
-516 259 -594 501 -9 26 -16 61 -16 77 0 16 -4 40 -10 54 l-10 26 -865 0 -865
0 0 -157 c0 -192 35 -478 75 -628 9 -33 19 -75 22 -93 3 -18 9 -35 14 -38 5
-3 9 -14 9 -24 0 -44 114 -282 189 -395 64 -97 228 -261 338 -337 199 -140
482 -253 763 -307 30 -6 80 -15 110 -21 63 -13 157 -25 315 -42 153 -17 2794
-17 2945 -1 197 22 382 55 540 96 79 21 243 78 255 88 5 5 15 9 22 9 21 0 201
92 283 144 199 128 386 329 499 538 82 152 132 290 191 528 82 332 98 933 41
1455 -8 71 -17 124 -52 305 -4 25 -15 70 -24 100 -9 30 -20 69 -25 85 -25 89
-55 164 -116 288 -82 166 -225 329 -381 434 -222 148 -445 219 -862 274 -195
25 -464 32 -1541 39 -759 5 -1153 11 -1190 18 -88 18 -130 32 -207 69 -194 95
-293 308 -293 633 0 357 143 599 410 692 193 67 211 68 1071 68 897 0 964 -4
1164 -78 88 -32 129 -57 189 -117 90 -90 137 -229 149 -440 l2 -40 850 -3
c468 -1 861 0 874 3 l24 6 -7 112 c-21 363 -71 633 -151 822 -7 17 -23 55 -36
85 -142 337 -438 622 -814 785 -22 10 -53 23 -70 30 -32 15 -238 80 -295 95
-239 61 -484 96 -776 110 -214 11 -1825 10 -2074 -1z"/>
<path d="M26060 19715 c-322 -64 -548 -258 -666 -572 -67 -177 -74 -450 -17
-652 70 -250 259 -460 493 -550 127 -48 217 -63 380 -63 284 0 479 72 651 242
173 172 261 405 260 690 -1 275 -94 507 -271 680 -118 114 -295 201 -471 229
-86 14 -279 12 -359 -4z m337 -306 c77 -14 188 -71 248 -128 126 -121 185
-274 185 -482 0 -195 -56 -347 -167 -458 -117 -118 -221 -156 -418 -155 -114
0 -139 4 -203 26 -139 50 -239 138 -301 264 -46 93 -62 165 -68 289 -18 374
194 636 532 658 53 3 117 -2 192 -14z"/>
<path d="M20662 19688 c-9 -12 -73 -150 -224 -488 -33 -74 -89 -198 -123 -275
-77 -170 -186 -413 -267 -595 -33 -74 -75 -168 -94 -209 -28 -61 -34 -85 -34
-142 l0 -70 152 3 153 3 14 30 c8 17 42 91 76 165 l61 135 467 3 467 2 9 -22
c5 -13 39 -88 75 -168 l66 -145 180 -3 c132 -2 180 1 180 9 0 7 -27 71 -59
143 -33 72 -92 203 -131 291 -39 88 -100 223 -135 300 -61 136 -126 281 -260
580 -168 373 -199 441 -208 453 -7 9 -56 12 -182 12 -126 0 -175 -3 -183 -12z
m238 -493 c59 -137 95 -221 185 -425 42 -96 79 -183 82 -192 5 -17 -15 -18
-321 -18 -235 0 -326 3 -326 11 0 6 15 46 34 88 51 115 223 506 268 610 10 25
22 40 27 35 4 -5 27 -54 51 -109z"/>
<path d="M23747 19693 c-4 -3 -7 -73 -7 -155 l0 -148 283 -2 282 -3 3 -737 2
-738 165 0 165 0 0 740 0 740 283 2 282 3 0 150 0 150 -726 3 c-399 1 -729 -1
-732 -5z"/>
<path d="M21943 19113 c5 -630 6 -646 66 -790 53 -129 147 -244 263 -322 64
-42 184 -89 275 -107 100 -19 294 -18 391 2 214 44 378 164 472 346 94 180
100 235 100 899 l0 549 -165 0 -165 0 0 -497 c0 -274 -5 -538 -10 -586 -28
-239 -124 -362 -323 -414 -108 -27 -265 -5 -362 51 -54 32 -117 102 -149 165
-54 105 -56 130 -56 729 l0 552 -171 0 -171 0 5 -577z"/>
</g>
</svg>
